<svg width="1075" height="596" viewBox="0 0 1075 596" fill="none" xmlns="http://www.w3.org/2000/svg">
<path d="M652.579 50.7895L869 176.421L579.667 343.915L436.736 260.947L290.912 343.158M0.999974 175.263L145.956 259.211M290.912 343.158V175.263L579.667 6.21053V175.263L869 343.158V509.316L726.069 595L574.459 503.47L430.371 586.895L146.824 427.684V90.7368M290.912 343.158L145.956 259.211M202.955 1L514.277 181.632V538.263L203.823 359.947M145.956 259.211L0.999974 343.158" stroke="#2D20BC" stroke-miterlimit="10"/>
<path d="M269.005 423.226C264.585 423.229 261 419.646 261 415.226V377.985C261 373.567 264.582 369.985 269 369.985H321.505C325.924 369.985 329.505 373.567 329.505 377.985V415.192C329.505 419.608 325.927 423.189 321.511 423.192L291.293 423.211C290.735 423.212 290.202 423.446 289.824 423.856L278.048 436.634C277.431 437.304 276.313 436.867 276.313 435.957V425.223C276.313 424.117 275.417 423.222 274.312 423.223L269.005 423.226Z" stroke="#AF00FD" stroke-width="2" stroke-miterlimit="10"/>
<path d="M317.821 384.896H272.688M317.821 396.985H272.688M317.821 409.074H288.403" stroke="#2D20BC" stroke-width="7" stroke-miterlimit="10"/>
<path d="M700.644 164.845H682.451C678.033 164.845 674.451 168.426 674.451 172.845V210.085C674.451 214.506 678.036 218.088 682.456 218.085L687.763 218.082C688.868 218.081 689.764 218.977 689.764 220.082V230.816C689.764 231.727 690.882 232.163 691.5 231.494L703.275 218.716C703.653 218.305 704.186 218.071 704.744 218.071L734.962 218.051C739.378 218.048 742.957 214.467 742.957 210.051V203.154" stroke="#AF00FD" stroke-width="2" stroke-miterlimit="10"/>
<path d="M767.997 196.755C772.417 196.758 776.002 193.176 776.002 188.755V151.515C776.002 147.096 772.42 143.515 768.002 143.515H715.496C711.078 143.515 707.496 147.096 707.496 151.515V188.721C707.496 193.137 711.075 196.718 715.491 196.721L745.709 196.741C746.267 196.741 746.8 196.975 747.178 197.385L758.954 210.164C759.571 210.833 760.689 210.397 760.689 209.486V198.752C760.689 197.647 761.585 196.751 762.69 196.752L767.997 196.755Z" stroke="#AF00FD" stroke-width="2" stroke-miterlimit="10"/>
<path d="M719.181 158.425H764.314M719.181 170.514H764.314M719.181 182.603H748.598" stroke="#2D20BC" stroke-width="7" stroke-miterlimit="10"/>
<rect x="460.068" y="234.05" width="87.2252" height="135.935" rx="43.6126" fill="#2D20BC"/>
<path d="M447.607 320.142V275.397C447.607 244.428 472.712 219.323 503.681 219.323V219.323C534.649 219.323 559.754 244.428 559.754 275.397V320.058V320.058C559.754 338.247 545.008 352.993 526.819 352.993H520.673" stroke="#AF00FD" stroke-width="2" stroke-miterlimit="10"/>
<path d="M438.615 320.143L447.607 320.143L447.593 282.76L438.615 282.76C434.197 282.76 430.615 286.342 430.615 290.76L430.615 312.143C430.615 316.561 434.197 320.143 438.615 320.143Z" stroke="#AF00FD" stroke-width="2" stroke-miterlimit="10"/>
<path d="M576.41 320.143L565.418 320.143L565.432 282.76L576.41 282.76C579.724 282.76 582.41 285.447 582.41 288.76L582.41 314.143C582.41 317.456 579.724 320.143 576.41 320.143Z" fill="#2D20BC" fill-opacity="0.19"/>
<path d="M568.746 320.143L559.754 320.143L559.768 282.76L568.746 282.76C573.164 282.76 576.746 286.342 576.746 290.76L576.746 312.143C576.746 316.561 573.164 320.143 568.746 320.143Z" stroke="#AF00FD" stroke-width="2" stroke-miterlimit="10"/>
<rect x="488.389" y="343.931" width="31.7182" height="15.8591" rx="7.92956" stroke="#AF00FD" stroke-width="2" stroke-miterlimit="10"/>
<path d="M418.16 228.341C418.16 203.271 438.481 183.006 463.618 183.006M436.674 228.341C436.674 213.48 448.716 201.321 463.769 201.321" stroke="#AF00FD" stroke-width="2" stroke-miterlimit="10"/>
</svg>
