<svg width="96" height="96" viewBox="0 0 96 96" fill="none" xmlns="http://www.w3.org/2000/svg">
<rect x="2" y="2" width="46" height="46" stroke="#AF00FD" stroke-width="4"/>
<path d="M22 66.2107C22 60.6298 26.5243 56.1055 32.1053 56.1055H53.1053C58.6863 56.1055 63.2105 60.6298 63.2105 66.2107V72.4476H22V66.2107Z" stroke="white"/>
<path d="M64.6313 56.1055H65.8945C71.4755 56.1055 75.9998 60.6298 75.9998 66.2107V72.4476H68.4208" stroke="white"/>
<path d="M31.9473 41.0256C31.9473 46.6066 36.4715 51.1309 42.0525 51.1309H43.1578C48.7388 51.1309 53.2631 46.6066 53.2631 41.0256V30.6045C53.2631 27.8141 51.0009 25.5519 48.2104 25.5519H36.9999C34.2094 25.5519 31.9473 27.8141 31.9473 30.6045V41.0256Z" stroke="white"/>
<path d="M57.1083 25.5519H59.5789C62.3694 25.5519 64.6315 27.8141 64.6315 30.6045V41.0256C64.6315 46.6066 60.1072 51.1309 54.5263 51.1309H53.9736" stroke="white"/>
</svg>
