<svg width="129" height="30" viewBox="0 0 129 30" fill="none" xmlns="http://www.w3.org/2000/svg">
<path fill-rule="evenodd" clip-rule="evenodd" d="M96.4014 22.0386H92.2124V10.5953H86.5665V22.0386H82.3906V6.40625H86.5665V6.92109C86.727 6.82186 86.8965 6.73628 87.0743 6.66457C87.4833 6.49071 87.9171 6.40625 88.3677 6.40625H93.0083C93.4722 6.40625 93.9183 6.49684 94.3381 6.68197C94.7428 6.85186 95.1008 7.09235 95.4037 7.40392C95.7153 7.70683 95.9558 8.0649 96.1257 8.46966C96.3108 8.88945 96.4014 9.33547 96.4014 9.79934V22.0386ZM108.415 15.4766H112.604V18.6455C112.604 19.1094 112.513 19.5554 112.328 19.9752C112.158 20.382 111.917 20.7438 111.606 21.054C111.304 21.3564 110.949 21.5948 110.549 21.7723L110.541 21.776L110.532 21.7796C110.114 21.9539 109.671 22.0386 109.211 22.0386H102.514C102.06 22.0386 101.622 21.9529 101.206 21.7796L101.197 21.776L101.188 21.7723C100.792 21.596 100.436 21.3606 100.129 21.0645L100.118 21.0541L100.108 21.0433C99.8119 20.7359 99.5765 20.3806 99.4001 19.9839L99.3964 19.9754L99.3928 19.9668C99.2185 19.5485 99.1338 19.1055 99.1338 18.6455V9.79934C99.1338 9.33938 99.2185 8.89641 99.3928 8.47808L99.3964 8.46947L99.4001 8.46095C99.5776 8.0617 99.816 7.70641 100.118 7.40402C100.429 7.09377 100.79 6.85271 101.197 6.68197C101.614 6.49796 102.056 6.40625 102.514 6.40625H109.211C109.675 6.40625 110.121 6.49684 110.541 6.68197C110.945 6.85186 111.303 7.09235 111.606 7.40392C111.918 7.70683 112.158 8.0649 112.328 8.46966C112.513 8.88945 112.604 9.33547 112.604 9.79934V12.9683H108.415V10.5953H103.31V17.8496H108.415V15.4766ZM128.82 16.3433H119.525V17.8496H128.82V22.0386H118.73C118.276 22.0386 117.837 21.9529 117.421 21.7796L117.413 21.776L117.404 21.7723C117.008 21.596 116.652 21.3606 116.345 21.0645L116.334 21.0541L116.324 21.0433C116.028 20.7359 115.792 20.3806 115.616 19.9839L115.612 19.9754L115.609 19.9668C115.434 19.5485 115.35 19.1055 115.35 18.6455V9.79934C115.35 9.33938 115.434 8.89641 115.609 8.47808L115.612 8.46947L115.616 8.46095C115.793 8.0617 116.032 7.70641 116.334 7.40402C116.644 7.09377 117.006 6.85271 117.413 6.68197C117.83 6.49796 118.272 6.40625 118.73 6.40625H125.427C125.891 6.40625 126.337 6.49684 126.757 6.68197C127.161 6.85186 127.519 7.09235 127.822 7.40392C128.134 7.70683 128.374 8.0649 128.544 8.46966C128.729 8.88945 128.82 9.33547 128.82 9.79934V16.3433ZM124.631 12.1543V10.5953H119.525V12.1543H124.631Z" fill="#2D20BC"/>
<path fill-rule="evenodd" clip-rule="evenodd" d="M35.5889 22.4756H39.7779V25.6446C39.7779 26.1084 39.6873 26.5544 39.5022 26.9742C39.3315 27.3811 39.0904 27.7428 38.7801 28.0531C38.4777 28.3554 38.1224 28.5938 37.7232 28.7713L37.7147 28.7751L37.706 28.7787C37.2877 28.953 36.8447 29.0376 36.3848 29.0376H29.6875C29.2336 29.0376 28.7954 28.952 28.3794 28.7787L28.3708 28.7751L28.3623 28.7713C27.9656 28.595 27.6103 28.3596 27.3029 28.0636L27.2921 28.0532L27.2817 28.0423C26.9857 27.7349 26.7503 27.3796 26.574 26.9829L26.5702 26.9744L26.5666 26.9658C26.3923 26.5475 26.3076 26.1045 26.3076 25.6446V9.79836C26.3076 9.33841 26.3923 8.89544 26.5666 8.4771L26.5702 8.46849L26.574 8.45997C26.7514 8.06072 26.9898 7.70543 27.2922 7.40304C27.6024 7.09281 27.9641 6.85177 28.3709 6.68102C28.7881 6.49699 29.2295 6.40527 29.6875 6.40527H36.3848C36.8487 6.40527 37.2948 6.49587 37.7146 6.68103C38.1193 6.85091 38.4773 7.0914 38.7802 7.40294C39.0918 7.70586 39.3323 8.06392 39.5022 8.46869C39.6873 8.88848 39.7779 9.3345 39.7779 9.79836V12.9673H35.5889V10.5943H30.4834V24.8486H35.5889V22.4756ZM46.6993 1V22.0376H42.5234V1H46.6993ZM49.4316 6.40527H53.6075V17.8486H59.2534V6.40527H63.4424V22.0376H59.2534V21.5176C59.0845 21.6239 58.9056 21.7157 58.7176 21.7931C58.3194 21.9571 57.8997 22.0376 57.4654 22.0376H52.8115C52.3577 22.0376 51.9194 21.952 51.5035 21.7787L51.4949 21.7751L51.4863 21.7713C51.0896 21.595 50.7343 21.3596 50.4269 21.0636L50.4161 21.0532L50.4057 21.0423C50.1097 20.7349 49.8743 20.3796 49.698 19.9829L49.6942 19.9744L49.6906 19.9658C49.5163 19.5475 49.4316 19.1045 49.4316 18.6446V6.40527ZM79.6451 16.3423H70.3506V17.8486H79.6451V22.0376H69.5547C69.1008 22.0376 68.6626 21.952 68.2466 21.7787L68.238 21.7751L68.2295 21.7713C67.8328 21.595 67.4775 21.3596 67.1701 21.0636L67.1593 21.0532L67.1489 21.0423C66.8529 20.7349 66.6175 20.3796 66.4412 19.9829L66.4374 19.9744L66.4338 19.9658C66.2595 19.5475 66.1748 19.1045 66.1748 18.6446V9.79836C66.1748 9.33841 66.2595 8.89544 66.4338 8.4771L66.4374 8.46849L66.4412 8.45997C66.6186 8.06072 66.857 7.70543 67.1594 7.40304C67.4696 7.09279 67.8313 6.85174 68.2381 6.68099C68.6553 6.49698 69.0967 6.40527 69.5547 6.40527H76.252C76.7159 6.40527 77.1619 6.49586 77.5817 6.68099C77.9865 6.85088 78.3445 7.09138 78.6473 7.40294C78.959 7.70585 79.1995 8.06392 79.3694 8.46868C79.5545 8.88847 79.6451 9.3345 79.6451 9.79836V16.3423ZM75.4561 12.1533V10.5943H70.3506V12.1533H75.4561Z" fill="white"/>
<path fill-rule="evenodd" clip-rule="evenodd" d="M4.68705 6.40527V22.0376H0.498047V6.40527H4.68705ZM0.366211 1H4.81889V5.29447H0.366211V1ZM21.5752 22.0376H17.3862V10.5943H11.7403V22.0376H7.56445V6.40527H11.7403V6.92012C11.9009 6.82086 12.0704 6.73527 12.2482 6.66355C12.6572 6.48972 13.091 6.40527 13.5415 6.40527H18.1821C18.6461 6.40527 19.0922 6.49587 19.512 6.68102C19.9167 6.85092 20.2747 7.09141 20.5776 7.40298C20.8891 7.70584 21.1296 8.06383 21.2995 8.46851C21.4846 8.88835 21.5752 9.33443 21.5752 9.79836V22.0376Z" fill="#2D20BC"/>
</svg>
